<svg width="126" height="120" viewBox="0 0 126 120" fill="none" xmlns="http://www.w3.org/2000/svg">
<path d="M63.0201 119.512C97.4595 119.512 125.378 92.8816 125.378 60.0317C125.378 27.1818 97.4595 0.551758 63.0201 0.551758C28.5807 0.551758 0.662109 27.1818 0.662109 60.0317C0.662109 92.8816 28.5807 119.512 63.0201 119.512Z" fill="#085F63"/>
<path d="M62.5069 71.1116C72.6362 71.1116 80.8477 63.2792 80.8477 53.6173C80.8477 43.9555 72.6362 36.123 62.5069 36.123C52.3775 36.123 44.166 43.9555 44.166 53.6173C44.166 63.2792 52.3775 71.1116 62.5069 71.1116Z" fill="#FACF5A"/>
<path d="M37.7097 74.0153C37.2573 74.2135 36.8171 74.4351 36.3769 74.6451L17.6086 101.061C18.7579 102.227 19.9439 103.3 21.1789 104.361L42.466 74.3885C41.0561 73.4846 39.2555 73.3434 37.7097 74.0153ZM96.2156 77.724L66.6142 119.395C68.7657 119.261 70.9084 119.02 73.0333 118.671L100.25 80.3597C98.9422 79.4384 97.5972 78.552 96.2156 77.724ZM102.195 81.7826L76.4446 118.03C78.9321 117.496 81.3822 116.814 83.7808 115.989L105.899 84.8382C104.738 83.7769 103.478 82.7739 102.195 81.7826ZM89.7231 74.3885L57.8108 119.313C59.4369 119.43 61.0631 119.511 62.7015 119.511H63.5941L94.0881 76.5811C92.6698 75.7763 91.2148 75.0532 89.7231 74.3885ZM19.3448 86.1444L12.6934 95.4745C13.7204 96.7807 14.7842 98.0519 15.909 99.2648L31.8041 76.9776C27.2638 79.5218 23.0777 82.6017 19.3448 86.1444ZM82.5336 75.9629C80.4459 79.3275 77.5022 82.1354 73.9748 84.1268L49.741 118.24C51.4894 118.59 53.2501 118.905 55.0352 119.115L87.3144 73.6304C85.3864 73.4824 83.5361 74.3852 82.5336 75.9629ZM55.3532 85.3513L35.3743 113.47C36.866 114.17 38.3699 114.811 39.9228 115.394L60.3417 86.6576C58.6299 86.4151 56.9549 85.9765 55.3532 85.3513ZM44.1655 76.1029L23.0129 105.878C24.2356 106.881 25.5561 107.825 26.9011 108.723L47.2956 80.0099C46.1084 78.8183 45.059 77.5085 44.1655 76.1029ZM63.3129 86.8558H63.1539L42.2948 116.222C43.8965 116.747 45.5227 117.237 47.1856 117.645L69.7443 85.8762C67.6678 86.523 65.4973 86.8536 63.3129 86.8558ZM107.746 86.5176L87.9013 114.45C91.1856 113.068 94.336 111.413 97.316 109.505L111.132 90.063C110.008 88.8385 108.87 87.6605 107.746 86.5176ZM49.1174 81.6076L28.9674 110.018C30.3368 110.869 31.7429 111.662 33.1735 112.35L53.1278 84.2667C51.6894 83.5288 50.3438 82.6366 49.1174 81.6076ZM114.091 93.7251C113.639 93.1186 113.15 92.5588 112.685 91.9757L103.356 105.096C107.428 101.758 111.036 97.9364 114.091 93.7251Z" fill="white"/>
<path d="M11.9473 94.5531C12.1918 94.8796 12.4486 95.1828 12.6931 95.4977L19.3446 86.1676C16.6165 88.7423 14.1404 91.5491 11.9473 94.5531ZM31.7427 77.0008L15.8477 99.2881C16.3979 99.8945 16.9725 100.454 17.5472 101.061L36.3767 74.61C34.7872 75.368 33.2466 76.1611 31.7427 77.0008ZM44.1653 75.9628C43.7519 75.3259 43.1915 74.7874 42.5268 74.3884L21.1786 104.361C21.79 104.886 22.4013 105.388 23.0493 105.877L44.1653 76.1028V75.9628ZM47.332 80.0098L26.9375 108.723C27.5978 109.166 28.2825 109.598 28.9672 110.018L49.1172 81.6075C48.4909 81.1076 47.8949 80.5742 47.332 80.0098ZM53.1276 84.3249L33.161 112.409C33.8946 112.782 34.6282 113.132 35.3619 113.47L55.3407 85.3513C54.5834 85.049 53.8446 84.7063 53.1276 84.3249ZM60.3415 86.6575L39.9225 115.429C40.705 115.721 41.4876 115.989 42.2945 116.257L63.1537 86.8907C62.2123 86.8666 61.2732 86.7887 60.3415 86.6575ZM69.744 85.8761L47.1853 117.645C48.029 117.843 48.8849 118.018 49.7407 118.193L73.9745 84.08C72.6375 84.8246 71.2189 85.4269 69.744 85.8761ZM88.9159 74.0152C88.4102 73.7952 87.8681 73.661 87.3141 73.6187L55.035 119.103C55.952 119.208 56.8813 119.278 57.8105 119.348L89.7228 74.4234L88.9159 74.0152ZM94.0879 76.5576L63.5939 119.488C64.6087 119.488 65.6235 119.488 66.6139 119.394L96.2153 77.7239C95.5184 77.3157 94.797 76.9425 94.0879 76.5576ZM100.25 80.3596L73.0331 118.671C74.1824 118.485 75.3195 118.275 76.4444 118.03L102.194 81.7825C101.559 81.3043 100.91 80.8262 100.25 80.3596ZM105.924 84.8381L83.805 115.989C85.1744 115.522 86.5316 115.009 87.8521 114.449L107.745 86.5175C107.11 85.9577 106.523 85.3862 105.924 84.8381ZM112.636 91.9756C112.11 91.3225 111.585 90.6811 111.034 90.0629L97.218 109.505C99.3509 108.159 101.393 106.687 103.331 105.096L112.636 91.9756Z" fill="#FACF5A"/>
</svg>
