<svg width="67" height="62" viewBox="0 0 67 62" fill="none" xmlns="http://www.w3.org/2000/svg">
<path d="M19.2779 38.2168C19.0378 38.3191 18.8041 38.4335 18.5705 38.5418L8.60885 52.1758C9.21888 52.7778 9.84838 53.3315 10.5038 53.8793L21.8024 38.4094C21.0541 37.9429 20.0984 37.87 19.2779 38.2168ZM50.331 40.131L34.6195 61.6383C35.7615 61.5696 36.8988 61.445 38.0266 61.2651L52.4726 41.4914C51.7782 41.0158 51.0644 40.5583 50.331 40.131ZM53.5045 42.2257L39.8372 60.9341C41.1575 60.6583 42.4579 60.3065 43.731 59.8807L55.4709 43.8028C54.8543 43.255 54.1859 42.7374 53.5045 42.2257ZM46.885 38.4094L29.9469 61.5962C30.8101 61.6564 31.6732 61.6985 32.5428 61.6985H33.0166L49.2018 39.5411C48.449 39.1257 47.6768 38.7525 46.885 38.4094ZM9.53039 44.477L6 49.2925C6.54513 49.9667 7.10974 50.6228 7.70679 51.2488L16.1434 39.7457C13.7335 41.0589 11.5117 42.6485 9.53039 44.477ZM43.0691 39.222C41.961 40.9586 40.3985 42.4078 38.5263 43.4356L25.6637 61.0424C26.5918 61.223 27.5263 61.3855 28.4738 61.4939L45.6065 38.0182C44.5833 37.9418 43.6012 38.4077 43.0691 39.222ZM28.6425 44.0677L18.0384 58.5805C18.8301 58.9416 19.6283 59.2727 20.4525 59.5737L31.2903 44.7418C30.3817 44.6167 29.4927 44.3903 28.6425 44.0677ZM22.7044 39.2943L11.4773 54.6618C12.1263 55.1795 12.8271 55.6671 13.541 56.1306L24.3658 41.3108C23.7357 40.6958 23.1787 40.0197 22.7044 39.2943ZM32.8673 44.8442H32.7829L21.7115 60.0011C22.5617 60.2719 23.4248 60.5247 24.3074 60.7354L36.2809 44.3385C35.1787 44.6724 34.0267 44.843 32.8673 44.8442ZM56.4508 44.6696L45.918 59.0861C47.6613 58.3731 49.3334 57.519 50.9151 56.5339L58.2484 46.4995C57.6514 45.8675 57.0479 45.2595 56.4508 44.6696ZM25.3328 42.1354L14.6378 56.7987C15.3646 57.2381 16.1109 57.6475 16.8702 58.0026L27.4614 43.5079C26.6979 43.127 25.9837 42.6665 25.3328 42.1354ZM59.8189 48.3896C59.5788 48.0766 59.3192 47.7877 59.0726 47.4867L54.121 54.2585C56.2823 52.5355 58.1971 50.5632 59.8189 48.3896Z" fill="#1D4244"/>
<path d="M33.0977 61.3987C51.3771 61.3987 66.1954 47.6541 66.1954 30.6993C66.1954 13.7446 51.3771 0 33.0977 0C14.8184 0 0 13.7446 0 30.6993C0 47.6541 14.8184 61.3987 33.0977 61.3987Z" fill="#085F63"/>
<path d="M32.8256 36.418C38.2019 36.418 42.5603 32.3755 42.5603 27.3887C42.5603 22.4019 38.2019 18.3594 32.8256 18.3594C27.4492 18.3594 23.0908 22.4019 23.0908 27.3887C23.0908 32.3755 27.4492 36.418 32.8256 36.418Z" fill="#FACF5A"/>
<path d="M5.99023 48.5168C6.12003 48.6853 6.25631 48.8418 6.38611 49.0043L9.91649 44.1888C8.46849 45.5177 7.15429 46.9663 5.99023 48.5168ZM16.497 39.4575L8.06044 50.9607C8.35248 51.2737 8.65749 51.5626 8.96251 51.8756L18.9566 38.2236C18.113 38.6148 17.2953 39.0241 16.497 39.4575ZM23.0906 38.9218C22.8711 38.5931 22.5737 38.3152 22.2209 38.1092L10.8899 53.5791C11.2144 53.85 11.5389 54.1088 11.8829 54.3616L23.0906 38.994V38.9218ZM24.7714 41.0106L13.9466 55.8304C14.297 56.0591 14.6605 56.2818 15.0239 56.4985L25.7189 41.8352C25.3865 41.5772 25.0701 41.3019 24.7714 41.0106ZM27.8475 43.2377L17.2498 57.7325C17.6392 57.9251 18.0286 58.1057 18.418 58.2803L29.0221 43.7674C28.6202 43.6114 28.228 43.4346 27.8475 43.2377ZM31.6764 44.4416L20.8386 59.2915C21.254 59.442 21.6693 59.5805 22.0976 59.7189L33.169 44.562C32.6693 44.5496 32.1709 44.5094 31.6764 44.4416ZM36.667 44.0383L24.6935 60.4352C25.1413 60.5375 25.5956 60.6278 26.0498 60.7181L38.9124 43.1113C38.2028 43.4956 37.4498 43.8065 36.667 44.0383ZM46.8428 37.9166C46.5744 37.803 46.2867 37.7338 45.9926 37.7119L28.8599 61.1876C29.3466 61.2418 29.8398 61.2779 30.333 61.3141L47.2711 38.1273L46.8428 37.9166ZM49.5879 39.2288L33.4027 61.3863C33.9413 61.3863 34.4799 61.3863 35.0056 61.3381L50.7171 39.8307C50.3472 39.6201 49.9643 39.4274 49.5879 39.2288ZM52.8587 41.1911L38.4127 60.9649C39.0227 60.8686 39.6263 60.7603 40.2233 60.6339L53.8906 41.9255C53.5531 41.6787 53.2092 41.4319 52.8587 41.1911ZM55.87 43.5026L44.1301 59.5805C44.857 59.3397 45.5773 59.0748 46.2782 58.7859L56.8369 44.3694C56.4995 44.0805 56.1879 43.7855 55.87 43.5026ZM59.4328 47.1865C59.1537 46.8494 58.8747 46.5183 58.5826 46.1993L51.2493 56.2337C52.3814 55.5392 53.4651 54.7793 54.4941 53.9583L59.4328 47.1865Z" fill="#FACF5A"/>
<path d="M43.8574 48.306H49.6981V50.8643C49.6981 52.1941 48.5359 53.272 47.1023 53.272H46.4533C45.0196 53.272 43.8574 52.1941 43.8574 50.8643V48.312V48.306Z" fill="#FACF5A"/>
</svg>
