<svg width="40" height="40" viewBox="0 0 40 40" fill="none" xmlns="http://www.w3.org/2000/svg">
<path d="M29.1723 0H10.8276C4.85717 0 0 4.85717 0 10.8276V29.1726C0 35.1428 4.85717 39.9999 10.8276 39.9999H29.1726C35.1428 39.9999 39.9999 35.1428 39.9999 29.1726V10.8276C39.9999 4.85717 35.1428 0 29.1723 0V0ZM37.655 29.1726C37.655 33.8497 33.8497 37.655 29.1723 37.655H10.8276C6.1502 37.655 2.34497 33.8497 2.34497 29.1726V10.8276C2.34497 6.1502 6.1502 2.34497 10.8276 2.34497H29.1726C33.8497 2.34497 37.655 6.1502 37.655 10.8276V29.1726Z" fill="#F0F3F3"/>
<path d="M19.9999 9.06299C13.969 9.06299 9.06274 13.9693 9.06274 20.0002C9.06274 26.031 13.969 30.9373 19.9999 30.9373C26.0308 30.9373 30.9371 26.031 30.9371 20.0002C30.9371 13.9693 26.0308 9.06299 19.9999 9.06299ZM19.9999 28.5924C15.2624 28.5924 11.4077 24.738 11.4077 20.0002C11.4077 15.2626 15.2624 11.408 19.9999 11.408C24.7378 11.408 28.5921 15.2626 28.5921 20.0002C28.5921 24.738 24.7378 28.5924 19.9999 28.5924Z" fill="#F0F3F3"/>
<path d="M31.1986 5.17822C29.4164 5.17822 27.9668 6.62811 27.9668 8.41003C27.9668 10.1923 29.4164 11.6421 31.1986 11.6421C32.9808 11.6421 34.4307 10.1923 34.4307 8.41003C34.4307 6.6278 32.9808 5.17822 31.1986 5.17822ZM31.1986 9.29687C30.7097 9.29687 30.3118 8.89892 30.3118 8.41003C30.3118 7.92083 30.7097 7.52319 31.1986 7.52319C31.6878 7.52319 32.0857 7.92083 32.0857 8.41003C32.0857 8.89892 31.6878 9.29687 31.1986 9.29687Z" fill="#F0F3F3"/>
</svg>
